<?xml version="1.0" standalone="no"?>
<!DOCTYPE svg PUBLIC "-//W3C//DTD SVG 20010904//EN"
 "http://www.w3.org/TR/2001/REC-SVG-20010904/DTD/svg10.dtd">
<svg version="1.0" xmlns="http://www.w3.org/2000/svg"
 width="566.000000pt" height="592.000000pt" viewBox="0 0 566.000000 592.000000"
 preserveAspectRatio="xMidYMid meet">

<g transform="translate(0.000000,592.000000) scale(0.100000,-0.100000)"
fill="#000000" stroke="none">
<path d="M1650 4834 c-185 -39 -357 -152 -456 -297 -36 -54 -85 -162 -96 -211
-5 -23 -13 -59 -18 -81 -5 -23 -9 -583 -10 -1308 0 -1393 -2 -1342 61 -1490
52 -122 149 -242 254 -313 199 -135 451 -160 672 -67 68 29 2110 1203 2210
1271 101 68 205 189 249 288 137 309 37 692 -232 891 -53 39 -1236 725 -1364
791 -14 7 -42 23 -62 35 -213 127 -720 414 -780 442 -136 62 -286 80 -428 49z"/>
</g>
</svg>
