<svg width="24" height="24" viewBox="0 0 24 24" fill="none" xmlns="http://www.w3.org/2000/svg">
<path d="M12 2C15.3137 2 18 4.68629 18 8V9.15137C18.2825 9.2133 18.5544 9.30203 18.8164 9.43555L19.0918 9.58984C19.7183 9.97412 20.2289 10.5251 20.5645 11.1836L20.6504 11.3672C20.8356 11.7989 20.9159 12.2562 20.9561 12.748C21.001 13.2984 21 13.9763 21 14.7998V16.2002C21 17.0237 21.001 17.7016 20.9561 18.252C20.9159 18.7438 20.8356 19.2011 20.6504 19.6328L20.5645 19.8164C20.2289 20.4749 19.7183 21.0259 19.0918 21.4102L18.8164 21.5645C18.3311 21.8117 17.814 21.9101 17.252 21.9561C16.7016 22.001 16.0237 22 15.2002 22H8.7998C7.97632 22 7.29843 22.001 6.74805 21.9561C6.2562 21.9159 5.79892 21.8356 5.36719 21.6504L5.18359 21.5645C4.52513 21.2289 3.97414 20.7183 3.58984 20.0918L3.43555 19.8164C3.18829 19.3311 3.08988 18.814 3.04395 18.252C2.99898 17.7016 3 17.0237 3 16.2002V14.7998C3 13.9763 2.99898 13.2984 3.04395 12.748C3.08988 12.186 3.18829 11.6689 3.43555 11.1836L3.58984 10.9082C3.97414 10.2817 4.52513 9.77108 5.18359 9.43555L5.36719 9.34961C5.57194 9.26178 5.78283 9.19897 6 9.15137V8C6 4.6863 8.6863 2 12 2ZM12 13.5C11.4477 13.5 11 13.9477 11 14.5V16.5C11 17.0523 11.4477 17.5 12 17.5C12.5523 17.5 13 17.0523 13 16.5V14.5C13 13.9477 12.5523 13.5 12 13.5ZM12 4C9.79087 4 8 5.79087 8 8V9.00293C8.24981 9.00121 8.51616 9 8.7998 9H15.2002C15.4838 9 15.7502 9.00121 16 9.00293V8C16 5.79087 14.2091 4 12 4Z" fill="black"/>
</svg>
